<svg xmlns="http://www.w3.org/2000/svg" viewBox="0 0 48 48"><path fill="#edb405" d="M24 37L19 31 19 25 29 25 29 31z"/><path fill="#edbd28" d="M35,19c0,1.106-0.896,2-2,2c-1.106,0-2-0.894-2-2c0-1.105,0.894-2,2-2C34.104,17,35,17.895,35,19 M17,19c0-1.105-0.896-2-2-2c-1.106,0-2,0.895-2,2c0,1.106,0.894,2,2,2C16.104,21,17,20.106,17,19"/><path fill="#ffca28" d="M33,13c0-7.635-18-4.971-18,0v7c0,4.971,4.028,9,9,9c4.971,0,9-4.029,9-9V13z"/><path fill="#424242" d="M24,4c-6.075,0-10,4.926-10,11v2.285L16,19v-5l12-4l4,4v5l2-1.742V15c0-4.025-1.038-8.016-6-9l-1-2 H24z"/><path fill="#784719" d="M27,19c0-0.551,0.448-1,1-1s1,0.449,1,1s-0.448,1-1,1S27,19.551,27,19 M19,19c0,0.551,0.448,1,1,1 s1-0.449,1-1s-0.448-1-1-1S19,18.449,19,19"/><path fill="#fff" d="M24 43L19 31 24 32 29 31z"/><path fill="#d32f2f" d="M23 35L22.333 39.465 24 43.465 25.667 39.465 25 35 26 34 24 32 22 34z"/><path fill="#3f51b5" d="M29,31L29,31l-5,12l-5-12c0,0-11,1.986-11,13h32C40,33.025,29,31,29,31"/></svg>