<?xml version="1.0" encoding="utf-8"?>
<svg xmlns="http://www.w3.org/2000/svg" viewBox="0 0 48 48" width="480" height="480">
  <path fill="#FF9800" d="M24 37L19 31 19 25 29 25 29 31z" />
  <path fill="#FFA726" d="M33 17A2 2 0 1 0 33 21 2 2 0 1 0 33 17zM15 17A2 2 0 1 0 15 21 2 2 0 1 0 15 17z" />
  <path fill="#FFB74D" d="M33,13c0-7.6-18-5-18,0c0,1.1,0,5.9,0,7c0,5,4,9,9,9s9-4,9-9C33,18.9,33,14.1,33,13z" />
  <path fill="#FF5722" d="M24,4c-6.1,0-10,4.9-10,11c0,0.8,0,2.3,0,2.3l2,1.7v-5l12-4l4,4v5l2-1.7c0,0,0-1.5,0-2.3c0-4-1-8-6-9l-1-2H24z" />
  <path fill="#784719" d="M28 18A1 1 0 1 0 28 20 1 1 0 1 0 28 18zM20 18A1 1 0 1 0 20 20 1 1 0 1 0 20 18z" />
  <path fill="#CFD8DC" d="M29,31L29,31l-5,1l-5-1c0,0-11,2-11,13h32C40,33,29,31,29,31z" />
  <path fill="#3F51B5" d="M23 35L22 44 26 44 25 35 26 34 24 32 22 34z" />
</svg>