<svg xmlns="http://www.w3.org/2000/svg" viewBox="0 0 48 48"><path fill="#90caf9" d="M41,39c0,2.209-1.791,4-4,4h0H14c-2.209,0-4-1.791-4-4V5h31V39z"/><path fill="#1976d2" d="M14 12h3v3h-3V12zM20 12h17v3H20V12zM14 18h3v3h-3V18zM20 18h17v3H20V18z"/><path fill="#73bcf7" d="M34,31c0,1.679,1.007,3.61,3.144,6C35.007,39.39,34,41.321,34,43h3c2.209,0,4-1.791,4-4V24h-9v6h2V31 z"/><path fill="#1976d2" d="M14 24h3v3h-3V24zM20 24h17v3H20V24z"/><path fill="#1e88e5" d="M32 24H37V27H32z"/><path fill="#42a5f5" d="M33,38c0-0.715,0-3.793,0-5H7c0,1.207,0,4.285,0,5c0,2.762,1.238,5,4,5h26C34.238,43,33,40.762,33,38 z"/><path fill="#ffe0b2" d="M42.1,37c1.4-1.4,3.9-4.1,3.9-6l0-1H36l0,1c0,1.9,2.5,4.6,3.9,6c-1.4,1.4-3.9,4.1-3.9,6l0,1h10l0-1 C46,41.1,43.5,38.4,42.1,37z"/><path fill="#8d6e63" d="M46,30H36v-2h10V30z M46,44H36v2h10V44z"/><path fill="#6d4c41" d="M48,28H34v-2h14V28z M48,46H34v2h14V46z"/><path fill="#fb8c00" d="M38,44c1-2,3-4,3-4s2,2,3,4H38z M38.4,32c0.5,0.9,1.5,2.1,2.6,3.3c1.2-1.2,2.1-2.4,2.6-3.3H38.4z"/></svg>