<svg xmlns="http://www.w3.org/2000/svg" viewBox="0 0 48 48"><path fill="#FF9800" d="M6 43L42 43 42 16 24 9 6 16z"/><path fill="#D47E00" d="M23 9H25V43H23z"/><path fill="#D47E00" d="M6 26H42V28H6z"/><path fill="#8A5100" d="M17 32h-4c-.6 0-1-.4-1-1v0c0-.6.4-1 1-1h4c.6 0 1 .4 1 1v0C18 31.6 17.6 32 17 32zM35 32h-4c-.6 0-1-.4-1-1v0c0-.6.4-1 1-1h4c.6 0 1 .4 1 1v0C36 31.6 35.6 32 35 32zM17 16h-4c-.6 0-1-.4-1-1v0c0-.6.4-1 1-1h4c.6 0 1 .4 1 1v0C18 15.6 17.6 16 17 16zM35 16h-4c-.6 0-1-.4-1-1v0c0-.6.4-1 1-1h4c.6 0 1 .4 1 1v0C36 15.6 35.6 16 35 16z"/><path fill="#F44336" d="M24 7L6 14 6 18 24 11 42 18 42 14z"/></svg>