<svg xmlns="http://www.w3.org/2000/svg" width="48" height="48" viewBox="0 0 48 48"><path fill="#C5CAE9" d="M8 3H40V45H8z"/><path fill="#9FA8DA" d="M8 11H40V12H8zM8 36H40V37H8z"/><g><path fill="#3949AB" d="M11 15H13V17H11zM15 15H27V17H15zM34 15H38V17H34zM11 19H13V21H11zM15 19H21V21H15zM34 19H38V21H34zM11 23H13V25H11zM15 23H26V25H15zM34 23H38V25H34zM11 27H13V29H11zM15 27H28V29H15zM34 27H38V29H34zM11 31H13V33H11zM15 31H22V33H15zM34 31H38V33H34z"/><path fill="#3F51B5" d="M15 6H34V8H15zM34 40H38V42H34zM22 40H31V42H22z"/></g></svg>