<svg xmlns="http://www.w3.org/2000/svg" viewBox="0 0 48 48"><path fill="#455a64" d="M31,12H8c-1.105,0-2-0.895-2-2V7c0-1.105,0.895-2,2-2h23c1.105,0,2,0.895,2,2v3C33,11.105,32.105,12,31,12z"/><path fill="#e1e7ea" d="M9.973,8v20c0,1.656,1.343,3,3,3h13c1.657,0,3-1.344,3-3V8H9.973z"/><path fill="#ffb74d" d="M37.817,31.324l-3.795-8.65c-0.471-1.314-1.158-2.445-2.445-2.963c-0.496-0.185-1.404-0.576-2.604-1.021V28c0,1.656-1.343,3-3,3H20.97l-1.997-8.979c-0.313-1.654-1.094-3.246-3.688-2.996c-0.97,0.099-2.595,1.029-2.22,3.435l1.907,12.547c1,5.992,5.343,7.992,7,7.992h11l4.586-9.617C37.991,32.813,38.085,31.922,37.817,31.324z"/><path fill="#e69329" d="M30.973,31l-1-5c-0.161-0.708-0.491-1.33-1-1.685V28c0,1.656-1.343,3-3,3h-5.005l0.224,1c0.656,2.5,2.564,1.949,2.564,1.949L28.973,33C30.317,32.75,31.161,32.125,30.973,31z"/><path fill="#ffcdd2" d="M17.911,21.708c0.158,1.094-3.802,1.663-3.959,0.571c-0.158-1.094,0.602-2.107,1.694-2.266C16.741,19.857,17.755,20.615,17.911,21.708z"/><polygon fill="#2196f3" points="21,13 21,10 18,10 18,13 16,13 19.5,16 23,13"/></svg>