<svg xmlns="http://www.w3.org/2000/svg" viewBox="0 0 48 48"><path fill="#1565c0" d="M25,32L25,32l-5,1l-5-1c0,0-11,1.986-11,13h32C36,34.025,25,32,25,32"/><path fill="#ff9800" d="M20 38L15 32 15 26 25 26 25 32z"/><path fill="#f9a825" d="M31,20c0,1.106-0.896,2-2,2c-1.106,0-2-0.894-2-2c0-1.105,0.894-2,2-2C30.104,18,31,18.895,31,20 M13,20c0-1.105-0.896-2-2-2c-1.106,0-2,0.895-2,2c0,1.106,0.894,2,2,2C12.104,22,13,21.106,13,20"/><path fill="#ffb74d" d="M29,14c0-7.635-18-4.971-18,0v7c0,4.971,4.028,9,9,9c4.971,0,9-4.029,9-9V14z"/><path fill="#424242" d="M20,5c-6.075,0-10,4.926-10,11v2.286L12,20v-5l12-4l4,4v5l2-1.742V16c0-4.025-1.038-8.016-6-9l-1-2 H20z"/><path fill="#784719" d="M23,20c0-0.551,0.448-1,1-1s1,0.449,1,1s-0.448,1-1,1S23,20.551,23,20 M15,20c0,0.551,0.448,1,1,1 s1-0.449,1-1s-0.448-1-1-1S15,19.449,15,20"/><path fill="#283593" d="M26,32.254V41H14v-8.749c-0.945,0.28-2.445,0.823-4,1.791V41v2v2h20v-2v-2v-6.941 C28.444,33.086,26.944,32.536,26,32.254z"/><path fill="#263238" d="M14,41L14,41h-4l0,0v-3l0,0h4l0,0V41z M30,38L30,38h-4l0,0v3l0,0h4l0,0V38z"/><path fill="#1565c0" d="M30,14.52v-2.255C30,7.257,25.216,4,20,4l0,0c-5.216,0-10,3.257-10,8.265v2.311 c0,0,3.889-2.576,10-2.576S30,14.52,30,14.52z"/><path fill="#1976d2" d="M14,13h12c0,0-0.5-7.44-5.996-9.416C14.333,5.987,14,13,14,13z"/><path fill="#42a5f5" d="M20 3A1.333.64 0 1 0 20 4.28 1.333.64 0 1 0 20 3zM20 12c-6 0-8.75 1.669-10 2.52C11 16 11.922 17 12.618 17l0 0c.473 0 1.381-1 7.381-1s6.859 1 7.334 1C28.025 17 29 16 30 14.52 29.028 13.689 26 12 20 12z"/><path fill="#ff9800" d="M45.111,45H29.889C29.4,45,29,44.6,29,44.111V29.889C29,29.4,29.4,29,29.889,29h15.222 C45.6,29,46,29.4,46,29.889v14.222C46,44.6,45.6,45,45.111,45z"/><path fill="#ffb74d" d="M36 29H39V34H36z"/><path fill="#3e2723" d="M34 42H41V43H34zM39 38H40V41H39z"/><path fill="#3e2723" d="M39.5 37L38 39 41 39zM35 38H36V41H35z"/><path fill="#3e2723" d="M35.5 37L34 39 37 39z"/></svg>